<svg xmlns="http://www.w3.org/2000/svg" width="108" height="108" viewBox="0 0 108 108">
  <title>Audio — headphones and sound</title>
  <defs>
    <linearGradient id="background" gradientUnits="userSpaceOnUse" x1="18" y1="18" x2="90" y2="98">
      <stop offset="0" stop-color="#5364EF"/>
      <stop offset="0.48" stop-color="#304AC8"/>
      <stop offset="1" stop-color="#14235F"/>
    </linearGradient>
  </defs>
  <path id="background-shape" d="M0 0H108V108H0Z" fill="url(#background)"/>
  <g id="mark">
    <path d="M34 57V51A20 20 0 0 1 74 51V57" fill="none" stroke="#FFFFFF" stroke-width="7" stroke-linecap="round"/>
    <path d="M34.5 53A5 5 0 0 1 39.5 58V70A5 5 0 0 1 29.5 70V58A5 5 0 0 1 34.5 53Z" fill="#FFFFFF"/>
    <path d="M73.5 53A5 5 0 0 1 78.5 58V70A5 5 0 0 1 68.5 70V58A5 5 0 0 1 73.5 53Z" fill="#FFFFFF"/>
    <path d="M47 54A2.5 2.5 0 0 1 49.5 56.5V64.5A2.5 2.5 0 0 1 44.5 64.5V56.5A2.5 2.5 0 0 1 47 54Z" fill="#71F5D2"/>
    <path d="M54 47A2.5 2.5 0 0 1 56.5 49.5V68.5A2.5 2.5 0 0 1 51.5 68.5V49.5A2.5 2.5 0 0 1 54 47Z" fill="#71F5D2"/>
    <path d="M61 51A2.5 2.5 0 0 1 63.5 53.5V66.5A2.5 2.5 0 0 1 58.5 66.5V53.5A2.5 2.5 0 0 1 61 51Z" fill="#71F5D2"/>
  </g>
</svg>
